/* XPM */
static char *dummy[]={
"13 14 4 1",
"# c #000000",
"b c #0403b1",
"a c #696766",
". c #ffffff",
".............",
".###.........",
".#######.....",
".#######.....",
"...aa........",
"...aa.bbbbbb.",
"...aa.b....b.",
"...aa.b.bb.b.",
"...aa.b....b.",
"...aa.b.bb.b.",
"...aa.b....b.",
"...aa.bbbbbb.",
"...aa........",
"............."};
